<mxfile host="www.draw.io" modified="2019-11-29T07:08:30.511Z" agent="Mozilla/5.0 (Macintosh; Intel Mac OS X 10_14_2) AppleWebKit/605.1.15 (KHTML, like Gecko) Version/12.0.2 Safari/605.1.15" etag="epYBVqKODBcArIymdj1x" version="12.3.3" type="github" pages="1">
  <diagram id="zlUfGWhfjDobWCDwf9dy" name="Page-1">
    <mxGraphModel dx="919" dy="654" grid="1" gridSize="10" guides="1" tooltips="1" connect="1" arrows="1" fold="1" page="1" pageScale="1" pageWidth="3300" pageHeight="4681" math="0" shadow="0">
      <root>
        <mxCell id="0"/>
        <mxCell id="1" parent="0"/>
        <mxCell id="mjjBIHvK_UBFyNg4M1vC-1" value="&lt;p style=&quot;margin: 0px ; margin-top: 4px ; text-align: center&quot;&gt;&lt;i&gt;&amp;lt;&amp;lt;Protocol&amp;gt;&amp;gt;&lt;/i&gt;&lt;br&gt;&lt;b&gt;LADBizViewProtocol&lt;/b&gt;&lt;/p&gt;&lt;p style=&quot;margin: 0px ; margin-left: 4px&quot;&gt;&lt;br&gt;&lt;/p&gt;&lt;hr size=&quot;1&quot;&gt;&lt;p style=&quot;margin: 0px ; margin-left: 4px&quot;&gt;- bindViewModel:(LADViewModel *):viewModel&lt;br&gt;+ heightWithViewModel:(LADViewModel *) inWidth:(CGFloat)width&lt;/p&gt;" style="verticalAlign=top;align=left;overflow=fill;fontSize=12;fontFamily=Helvetica;html=1;" vertex="1" parent="1">
          <mxGeometry x="40" y="40" width="360" height="100" as="geometry"/>
        </mxCell>
      </root>
    </mxGraphModel>
  </diagram>
</mxfile>
